<mxfile host="app.diagrams.net" agent="Mozilla/5.0 (Macintosh; Intel Mac OS X 10_15_7) AppleWebKit/537.36 (KHTML, like Gecko) Chrome/134.0.0.0 Safari/537.36 Edg/134.0.0.0" version="26.1.1">
  <diagram name="第 1 页" id="NiJVX1k8FoU3-rgRwOq3">
    <mxGraphModel dx="651" dy="385" grid="1" gridSize="10" guides="1" tooltips="1" connect="1" arrows="1" fold="1" page="1" pageScale="1" pageWidth="827" pageHeight="1169" math="0" shadow="0">
      <root>
        <mxCell id="0" />
        <mxCell id="1" parent="0" />
        <mxCell id="lTlp4GuGlG9wNdZyzh0I-43" value="" style="rounded=0;whiteSpace=wrap;html=1;" vertex="1" parent="1">
          <mxGeometry x="180" y="290" width="380" height="130" as="geometry" />
        </mxCell>
        <mxCell id="lTlp4GuGlG9wNdZyzh0I-1" value="&lt;font face=&quot;Times New Roman&quot;&gt;Runing&lt;/font&gt;" style="ellipse;whiteSpace=wrap;html=1;aspect=fixed;" vertex="1" parent="1">
          <mxGeometry x="190" y="195" width="60" height="60" as="geometry" />
        </mxCell>
        <mxCell id="lTlp4GuGlG9wNdZyzh0I-2" value="&lt;font face=&quot;Times New Roman&quot;&gt;Ready&lt;/font&gt;" style="ellipse;whiteSpace=wrap;html=1;aspect=fixed;" vertex="1" parent="1">
          <mxGeometry x="490" y="195" width="60" height="60" as="geometry" />
        </mxCell>
        <mxCell id="lTlp4GuGlG9wNdZyzh0I-3" value="&lt;font face=&quot;Times New Roman&quot;&gt;Restart&lt;/font&gt;" style="ellipse;whiteSpace=wrap;html=1;aspect=fixed;" vertex="1" parent="1">
          <mxGeometry x="340" y="195" width="60" height="60" as="geometry" />
        </mxCell>
        <mxCell id="lTlp4GuGlG9wNdZyzh0I-4" value="&lt;font face=&quot;Times New Roman&quot;&gt;Block&lt;/font&gt;&lt;div&gt;&lt;font face=&quot;Times New Roman&quot;&gt;OnRecv&lt;/font&gt;&lt;/div&gt;" style="ellipse;whiteSpace=wrap;html=1;aspect=fixed;" vertex="1" parent="1">
          <mxGeometry x="190" y="337.5" width="60" height="60" as="geometry" />
        </mxCell>
        <mxCell id="lTlp4GuGlG9wNdZyzh0I-5" value="&lt;font face=&quot;Times New Roman&quot;&gt;Block&lt;/font&gt;&lt;div&gt;&lt;font face=&quot;Times New Roman&quot;&gt;OnReply&lt;/font&gt;&lt;/div&gt;" style="ellipse;whiteSpace=wrap;html=1;aspect=fixed;" vertex="1" parent="1">
          <mxGeometry x="280" y="337.5" width="60" height="60" as="geometry" />
        </mxCell>
        <mxCell id="lTlp4GuGlG9wNdZyzh0I-6" value="&lt;font face=&quot;Times New Roman&quot;&gt;Block&lt;/font&gt;&lt;div&gt;&lt;font face=&quot;Times New Roman&quot;&gt;OnSend&lt;/font&gt;&lt;/div&gt;" style="ellipse;whiteSpace=wrap;html=1;aspect=fixed;" vertex="1" parent="1">
          <mxGeometry x="380" y="337.5" width="60" height="60" as="geometry" />
        </mxCell>
        <mxCell id="lTlp4GuGlG9wNdZyzh0I-8" value="&lt;font face=&quot;Times New Roman&quot;&gt;Block&lt;/font&gt;&lt;div&gt;&lt;font face=&quot;Times New Roman&quot;&gt;OnNotification&lt;/font&gt;&lt;/div&gt;" style="ellipse;whiteSpace=wrap;html=1;aspect=fixed;" vertex="1" parent="1">
          <mxGeometry x="460" y="327.5" width="80" height="80" as="geometry" />
        </mxCell>
        <mxCell id="lTlp4GuGlG9wNdZyzh0I-13" value="&lt;font face=&quot;Times New Roman&quot;&gt;Trapped&lt;/font&gt;" style="text;html=1;align=center;verticalAlign=middle;whiteSpace=wrap;rounded=0;" vertex="1" parent="1">
          <mxGeometry x="260" y="190" width="60" height="30" as="geometry" />
        </mxCell>
        <mxCell id="lTlp4GuGlG9wNdZyzh0I-14" value="&lt;font face=&quot;Times New Roman&quot;&gt;Actived&lt;/font&gt;" style="text;html=1;align=center;verticalAlign=middle;whiteSpace=wrap;rounded=0;" vertex="1" parent="1">
          <mxGeometry x="260" y="230" width="60" height="30" as="geometry" />
        </mxCell>
        <mxCell id="lTlp4GuGlG9wNdZyzh0I-17" value="" style="endArrow=classic;html=1;rounded=0;entryX=-0.005;entryY=0.395;entryDx=0;entryDy=0;entryPerimeter=0;exitX=1.032;exitY=0.395;exitDx=0;exitDy=0;exitPerimeter=0;" edge="1" parent="1" source="lTlp4GuGlG9wNdZyzh0I-1" target="lTlp4GuGlG9wNdZyzh0I-3">
          <mxGeometry width="50" height="50" relative="1" as="geometry">
            <mxPoint x="500" y="310" as="sourcePoint" />
            <mxPoint x="440" y="320" as="targetPoint" />
          </mxGeometry>
        </mxCell>
        <mxCell id="lTlp4GuGlG9wNdZyzh0I-18" value="" style="endArrow=classic;html=1;rounded=0;entryX=0.995;entryY=0.626;entryDx=0;entryDy=0;entryPerimeter=0;exitX=-0.008;exitY=0.63;exitDx=0;exitDy=0;exitPerimeter=0;" edge="1" parent="1" source="lTlp4GuGlG9wNdZyzh0I-3" target="lTlp4GuGlG9wNdZyzh0I-1">
          <mxGeometry width="50" height="50" relative="1" as="geometry">
            <mxPoint x="340" y="234" as="sourcePoint" />
            <mxPoint x="350" y="228" as="targetPoint" />
          </mxGeometry>
        </mxCell>
        <mxCell id="lTlp4GuGlG9wNdZyzh0I-19" value="" style="endArrow=classic;html=1;rounded=0;exitX=0.999;exitY=0.384;exitDx=0;exitDy=0;exitPerimeter=0;entryX=0.006;entryY=0.391;entryDx=0;entryDy=0;entryPerimeter=0;" edge="1" parent="1" source="lTlp4GuGlG9wNdZyzh0I-3" target="lTlp4GuGlG9wNdZyzh0I-2">
          <mxGeometry width="50" height="50" relative="1" as="geometry">
            <mxPoint x="380" y="360" as="sourcePoint" />
            <mxPoint x="430" y="310" as="targetPoint" />
          </mxGeometry>
        </mxCell>
        <mxCell id="lTlp4GuGlG9wNdZyzh0I-20" value="" style="endArrow=classic;html=1;rounded=0;exitX=0.006;exitY=0.623;exitDx=0;exitDy=0;exitPerimeter=0;entryX=1.013;entryY=0.63;entryDx=0;entryDy=0;entryPerimeter=0;" edge="1" parent="1" source="lTlp4GuGlG9wNdZyzh0I-2" target="lTlp4GuGlG9wNdZyzh0I-3">
          <mxGeometry width="50" height="50" relative="1" as="geometry">
            <mxPoint x="420" y="320" as="sourcePoint" />
            <mxPoint x="470" y="270" as="targetPoint" />
          </mxGeometry>
        </mxCell>
        <mxCell id="lTlp4GuGlG9wNdZyzh0I-21" value="&lt;font face=&quot;Times New Roman&quot;&gt;Preempted&lt;/font&gt;" style="text;html=1;align=center;verticalAlign=middle;whiteSpace=wrap;rounded=0;" vertex="1" parent="1">
          <mxGeometry x="414" y="190" width="60" height="30" as="geometry" />
        </mxCell>
        <mxCell id="lTlp4GuGlG9wNdZyzh0I-22" value="&lt;font face=&quot;Times New Roman&quot;&gt;Scheduled&lt;/font&gt;" style="text;html=1;align=center;verticalAlign=middle;whiteSpace=wrap;rounded=0;" vertex="1" parent="1">
          <mxGeometry x="420" y="230" width="60" height="30" as="geometry" />
        </mxCell>
        <mxCell id="lTlp4GuGlG9wNdZyzh0I-24" value="&lt;font face=&quot;Times New Roman&quot;&gt;Inactive&lt;/font&gt;" style="ellipse;whiteSpace=wrap;html=1;aspect=fixed;" vertex="1" parent="1">
          <mxGeometry x="340" y="90" width="60" height="60" as="geometry" />
        </mxCell>
        <mxCell id="lTlp4GuGlG9wNdZyzh0I-25" value="&lt;font face=&quot;Times New Roman&quot;&gt;Exited&lt;/font&gt;" style="ellipse;whiteSpace=wrap;html=1;aspect=fixed;" vertex="1" parent="1">
          <mxGeometry x="430" y="90" width="60" height="60" as="geometry" />
        </mxCell>
        <mxCell id="lTlp4GuGlG9wNdZyzh0I-26" value="" style="endArrow=classic;html=1;rounded=0;exitX=0.5;exitY=1;exitDx=0;exitDy=0;entryX=0.5;entryY=0;entryDx=0;entryDy=0;" edge="1" parent="1" source="lTlp4GuGlG9wNdZyzh0I-3" target="lTlp4GuGlG9wNdZyzh0I-4">
          <mxGeometry width="50" height="50" relative="1" as="geometry">
            <mxPoint x="390" y="390" as="sourcePoint" />
            <mxPoint x="370" y="470" as="targetPoint" />
            <Array as="points">
              <mxPoint x="370" y="300" />
              <mxPoint x="220" y="300" />
            </Array>
          </mxGeometry>
        </mxCell>
        <mxCell id="lTlp4GuGlG9wNdZyzh0I-27" value="" style="endArrow=classic;html=1;rounded=0;exitX=0.5;exitY=1;exitDx=0;exitDy=0;entryX=0.5;entryY=0;entryDx=0;entryDy=0;" edge="1" parent="1" source="lTlp4GuGlG9wNdZyzh0I-3" target="lTlp4GuGlG9wNdZyzh0I-6">
          <mxGeometry width="50" height="50" relative="1" as="geometry">
            <mxPoint x="380" y="405" as="sourcePoint" />
            <mxPoint x="480" y="340" as="targetPoint" />
            <Array as="points">
              <mxPoint x="370" y="300" />
              <mxPoint x="410" y="300" />
            </Array>
          </mxGeometry>
        </mxCell>
        <mxCell id="lTlp4GuGlG9wNdZyzh0I-28" value="" style="endArrow=classic;html=1;rounded=0;exitX=0.5;exitY=1;exitDx=0;exitDy=0;entryX=0.5;entryY=0;entryDx=0;entryDy=0;" edge="1" parent="1" source="lTlp4GuGlG9wNdZyzh0I-3" target="lTlp4GuGlG9wNdZyzh0I-5">
          <mxGeometry width="50" height="50" relative="1" as="geometry">
            <mxPoint x="250" y="390" as="sourcePoint" />
            <mxPoint x="330" y="280" as="targetPoint" />
            <Array as="points">
              <mxPoint x="370" y="300" />
              <mxPoint x="310" y="300" />
            </Array>
          </mxGeometry>
        </mxCell>
        <mxCell id="lTlp4GuGlG9wNdZyzh0I-30" value="&lt;font face=&quot;Times New Roman&quot;&gt;Recv&lt;/font&gt;" style="text;html=1;align=center;verticalAlign=middle;whiteSpace=wrap;rounded=0;" vertex="1" parent="1">
          <mxGeometry x="170" y="307.5" width="60" height="30" as="geometry" />
        </mxCell>
        <mxCell id="lTlp4GuGlG9wNdZyzh0I-31" value="&lt;font face=&quot;Times New Roman&quot;&gt;Call&lt;/font&gt;" style="text;html=1;align=center;verticalAlign=middle;whiteSpace=wrap;rounded=0;" vertex="1" parent="1">
          <mxGeometry x="260" y="312.5" width="60" height="30" as="geometry" />
        </mxCell>
        <mxCell id="lTlp4GuGlG9wNdZyzh0I-32" value="&lt;font face=&quot;Times New Roman&quot;&gt;Call/Send&lt;/font&gt;" style="text;html=1;align=center;verticalAlign=middle;whiteSpace=wrap;rounded=0;" vertex="1" parent="1">
          <mxGeometry x="350" y="312.5" width="60" height="30" as="geometry" />
        </mxCell>
        <mxCell id="lTlp4GuGlG9wNdZyzh0I-33" value="" style="endArrow=classic;html=1;rounded=0;exitX=0.5;exitY=1;exitDx=0;exitDy=0;entryX=0.5;entryY=0;entryDx=0;entryDy=0;" edge="1" parent="1" source="lTlp4GuGlG9wNdZyzh0I-3" target="lTlp4GuGlG9wNdZyzh0I-8">
          <mxGeometry width="50" height="50" relative="1" as="geometry">
            <mxPoint x="350" y="450" as="sourcePoint" />
            <mxPoint x="400" y="400" as="targetPoint" />
            <Array as="points">
              <mxPoint x="370" y="300" />
              <mxPoint x="500" y="300" />
            </Array>
          </mxGeometry>
        </mxCell>
        <mxCell id="lTlp4GuGlG9wNdZyzh0I-34" value="&lt;font face=&quot;Times New Roman&quot;&gt;Recv&lt;/font&gt;" style="text;html=1;align=center;verticalAlign=middle;whiteSpace=wrap;rounded=0;" vertex="1" parent="1">
          <mxGeometry x="450" y="307.5" width="60" height="30" as="geometry" />
        </mxCell>
        <mxCell id="lTlp4GuGlG9wNdZyzh0I-35" value="" style="endArrow=classic;html=1;rounded=0;entryX=0.341;entryY=0.981;entryDx=0;entryDy=0;entryPerimeter=0;" edge="1" parent="1" target="lTlp4GuGlG9wNdZyzh0I-24">
          <mxGeometry width="50" height="50" relative="1" as="geometry">
            <mxPoint x="360" y="197" as="sourcePoint" />
            <mxPoint x="360" y="160" as="targetPoint" />
          </mxGeometry>
        </mxCell>
        <mxCell id="lTlp4GuGlG9wNdZyzh0I-37" value="" style="endArrow=classic;html=1;rounded=0;exitX=0.668;exitY=0.996;exitDx=0;exitDy=0;exitPerimeter=0;entryX=0.668;entryY=0.041;entryDx=0;entryDy=0;entryPerimeter=0;" edge="1" parent="1" source="lTlp4GuGlG9wNdZyzh0I-24" target="lTlp4GuGlG9wNdZyzh0I-3">
          <mxGeometry width="50" height="50" relative="1" as="geometry">
            <mxPoint x="370" y="207" as="sourcePoint" />
            <mxPoint x="420" y="160" as="targetPoint" />
          </mxGeometry>
        </mxCell>
        <mxCell id="lTlp4GuGlG9wNdZyzh0I-38" value="&lt;font face=&quot;Times New Roman&quot;&gt;Suspend&lt;/font&gt;" style="text;html=1;align=center;verticalAlign=middle;whiteSpace=wrap;rounded=0;" vertex="1" parent="1">
          <mxGeometry x="300" y="160" width="60" height="30" as="geometry" />
        </mxCell>
        <mxCell id="lTlp4GuGlG9wNdZyzh0I-39" value="&lt;font face=&quot;Times New Roman&quot;&gt;Resume&lt;/font&gt;" style="text;html=1;align=center;verticalAlign=middle;whiteSpace=wrap;rounded=0;" vertex="1" parent="1">
          <mxGeometry x="360" y="150" width="60" height="30" as="geometry" />
        </mxCell>
        <mxCell id="lTlp4GuGlG9wNdZyzh0I-40" value="" style="endArrow=classic;html=1;rounded=0;exitX=1;exitY=0;exitDx=0;exitDy=0;entryX=0.448;entryY=0.976;entryDx=0;entryDy=0;entryPerimeter=0;" edge="1" parent="1" source="lTlp4GuGlG9wNdZyzh0I-3" target="lTlp4GuGlG9wNdZyzh0I-25">
          <mxGeometry width="50" height="50" relative="1" as="geometry">
            <mxPoint x="210" y="190" as="sourcePoint" />
            <mxPoint x="260" y="140" as="targetPoint" />
          </mxGeometry>
        </mxCell>
        <mxCell id="lTlp4GuGlG9wNdZyzh0I-42" value="&lt;font face=&quot;Times New Roman&quot;&gt;Exit&lt;/font&gt;" style="text;html=1;align=center;verticalAlign=middle;whiteSpace=wrap;rounded=0;" vertex="1" parent="1">
          <mxGeometry x="400" y="165" width="60" height="30" as="geometry" />
        </mxCell>
        <mxCell id="lTlp4GuGlG9wNdZyzh0I-44" value="" style="endArrow=classic;html=1;rounded=0;exitX=0.75;exitY=0;exitDx=0;exitDy=0;entryX=1;entryY=1;entryDx=0;entryDy=0;" edge="1" parent="1" source="lTlp4GuGlG9wNdZyzh0I-43" target="lTlp4GuGlG9wNdZyzh0I-3">
          <mxGeometry width="50" height="50" relative="1" as="geometry">
            <mxPoint x="90" y="350" as="sourcePoint" />
            <mxPoint x="140" y="300" as="targetPoint" />
          </mxGeometry>
        </mxCell>
        <mxCell id="lTlp4GuGlG9wNdZyzh0I-45" value="" style="endArrow=classic;html=1;rounded=0;exitX=0.75;exitY=0;exitDx=0;exitDy=0;entryX=0.5;entryY=1;entryDx=0;entryDy=0;" edge="1" parent="1" source="lTlp4GuGlG9wNdZyzh0I-43" target="lTlp4GuGlG9wNdZyzh0I-2">
          <mxGeometry width="50" height="50" relative="1" as="geometry">
            <mxPoint x="475" y="300" as="sourcePoint" />
            <mxPoint x="401" y="256" as="targetPoint" />
          </mxGeometry>
        </mxCell>
        <mxCell id="lTlp4GuGlG9wNdZyzh0I-46" value="&lt;font face=&quot;Times New Roman&quot;&gt;Wake&lt;/font&gt;" style="text;html=1;align=center;verticalAlign=middle;whiteSpace=wrap;rounded=0;" vertex="1" parent="1">
          <mxGeometry x="480" y="255" width="60" height="30" as="geometry" />
        </mxCell>
        <mxCell id="lTlp4GuGlG9wNdZyzh0I-47" value="&lt;font face=&quot;Times New Roman&quot;&gt;Wake &amp;amp; Preempt&lt;/font&gt;" style="text;html=1;align=center;verticalAlign=middle;whiteSpace=wrap;rounded=0;" vertex="1" parent="1">
          <mxGeometry x="384" y="255" width="60" height="30" as="geometry" />
        </mxCell>
      </root>
    </mxGraphModel>
  </diagram>
</mxfile>
